Coordinates
version=1
nRows=8
nColumns=63
inDegrees=yes

Units are S.I. units (second, meters, Newtons, ...)
If the header above contains a line with 'inDegrees', this indicates whether rotational values are in degrees (yes) or radians (no).

endheader
time	pelvis_tilt	pelvis_list	pelvis_rotation	pelvis_tx	pelvis_ty	pelvis_tz	hip_flexion_r	hip_adduction_r	hip_rotation_r	knee_angle_r	knee_angle_r_beta	ankle_angle_r	subtalar_angle_r	mtp_angle_r	hip_flexion_l	hip_adduction_l	hip_rotation_l	knee_angle_l	knee_angle_l_beta	ankle_angle_l	subtalar_angle_l	mtp_angle_l	L5_S1_Flex_Ext	L5_S1_Lat_Bending	L5_S1_axial_rotation	L4_L5_Flex_Ext	L4_L5_Lat_Bending	L4_L5_axial_rotation	L3_L4_Flex_Ext	L3_L4_Lat_Bending	L3_L4_axial_rotation	L2_L3_Flex_Ext	L2_L3_Lat_Bending	L2_L3_axial_rotation	L1_L2_Flex_Ext	L1_L2_Lat_Bending	L1_L2_axial_rotation	L1_T12_Flex_Ext	L1_T12_Lat_Bending	L1_T12_axial_rotation	Abs_r3	Abs_r2	Abs_r1	Abs_t1	Abs_t2	neck_flexion	neck_bending	neck_rotation	arm_flex_r	arm_add_r	arm_rot_r	elbow_flex_r	pro_sup_r	wrist_flex_r	wrist_dev_r	arm_flex_l	arm_add_l	arm_rot_l	elbow_flex_l	pro_sup_l	wrist_flex_l	wrist_dev_l
7.121951	-0.102077	-2.722846	100.096473	0.262022	0.428333	0.898497	-1.022919	0.054972	-0.558956	2.724169	0.047546	29.218547	-2.897324	0.000000	3.344228	0.614411	-0.103403	6.393318	0.111584	33.322895	12.108139	0.000000	0.061578	-0.213777	-1.340087	0.114357	-0.284323	-1.423843	0.101166	-0.519777	-1.423843	0.070377	-0.519777	-1.172576	0.057181	-0.435934	-1.088821	0.035186	-0.331141	-1.005065	0.439846	-2.418288	-7.453162	0.000000	0.000000	23.130332	7.276950	-22.687881	6.548461	-18.240287	70.791211	24.019730	52.535351	9.420357	10.791254	5.214906	-16.441632	122.250350	12.512801	9.026009	-3.842236	-13.038144
7.146341	-0.119221	-2.564196	100.032639	0.262322	0.428398	0.898088	-1.171630	0.076221	-0.676043	2.815787	0.049145	29.335680	-2.645983	0.000000	3.124009	0.565294	-0.182741	6.491018	0.113290	33.231592	12.005429	0.000000	0.056906	-0.217609	-1.304429	0.105681	-0.289420	-1.385956	0.093491	-0.529094	-1.385956	0.065038	-0.529094	-1.141375	0.052843	-0.443748	-1.059849	0.032516	-0.337076	-0.978322	0.406475	-2.461633	-7.254843	0.000000	0.000000	22.326208	6.635835	-20.710210	6.708223	-18.316262	72.401968	24.030273	51.248856	9.118196	10.175698	5.353783	-16.412596	123.462770	12.241996	8.902605	-3.580029	-12.958319
7.170732	-0.138242	-2.406431	100.007383	0.262511	0.428523	0.897677	-1.349844	0.099797	-0.726627	2.862824	0.049966	29.406035	-2.500797	0.000000	2.892202	0.531438	-0.047488	6.531171	0.113990	33.089190	11.700671	0.000000	0.050817	-0.218350	-1.280876	0.094373	-0.290405	-1.360931	0.083488	-0.530896	-1.360931	0.058079	-0.530896	-1.120767	0.047189	-0.445259	-1.040712	0.029037	-0.338224	-0.960657	0.362984	-2.470017	-7.123849	0.000000	0.000000	21.376400	6.057579	-18.364632	6.975555	-18.413813	74.532418	24.010579	49.584928	8.738920	9.389818	5.518981	-16.318351	125.001228	11.881556	8.583281	-3.347669	-13.126300
7.195122	-0.157075	-2.259418	100.046991	0.262583	0.428669	0.897295	-1.549829	0.131764	-0.715528	2.857862	0.049879	29.448420	-2.480862	0.000000	2.689749	0.501774	-0.014060	6.562028	0.114529	32.991756	11.636243	0.000000	0.043399	-0.217092	-1.270976	0.080596	-0.288732	-1.350412	0.071300	-0.527838	-1.350412	0.049601	-0.527838	-1.112104	0.040300	-0.442694	-1.032668	0.024798	-0.336276	-0.953232	0.309993	-2.455789	-7.068787	0.000000	0.000000	20.300246	5.533694	-15.782306	7.208180	-18.523722	76.326278	23.995174	48.398568	8.327469	8.561465	5.722313	-16.223784	126.142311	11.638828	8.375746	-3.259887	-13.516267
7.219512	-0.182015	-2.128000	100.139590	0.262554	0.428824	0.896933	-1.758850	0.157240	-0.802067	2.820044	0.049219	29.517892	-2.360511	0.000000	2.503575	0.493084	0.161999	6.549915	0.114318	32.885543	11.482386	0.000000	0.034349	-0.215479	-1.274278	0.063790	-0.286586	-1.353920	0.056433	-0.523915	-1.353920	0.039258	-0.523915	-1.114993	0.031897	-0.439404	-1.035351	0.019627	-0.333776	-0.955708	0.245355	-2.437537	-7.087150	0.000000	0.000000	19.102032	5.080671	-13.058037	7.496924	-18.639933	78.311554	23.983030	47.058292	7.837377	7.665233	5.933799	-16.068565	127.591739	11.330356	7.941964	-3.288874	-14.077747
7.243902	-0.209581	-2.011861	100.296201	0.262387	0.428979	0.896589	-1.975948	0.179750	-0.982177	2.750471	0.048005	29.603629	-2.183325	0.000000	2.339049	0.504453	0.483871	6.510192	0.113624	32.786167	11.237341	0.000000	0.023151	-0.214121	-1.289958	0.042993	-0.284781	-1.370580	0.038034	-0.520613	-1.370580	0.026459	-0.520613	-1.128713	0.021498	-0.436635	-1.048091	0.013228	-0.331673	-0.967468	0.165362	-2.422176	-7.174359	0.000000	0.000000	17.778465	4.706123	-10.315211	7.823074	-18.760784	80.437902	23.963779	45.554825	7.305942	6.704173	6.147068	-15.849887	129.332947	10.944388	7.281860	-3.413884	-14.753169
7.268293	-0.221525	-1.921278	100.529335	0.262095	0.429101	0.896299	-2.175538	0.211964	-1.459801	2.668807	0.046579	29.753160	-1.694280	0.000000	2.230682	0.505328	0.715977	6.486717	0.113215	32.744491	11.225708	0.000000	0.010986	-0.211888	-1.315119	0.020402	-0.281811	-1.397314	0.018049	-0.515184	-1.397314	0.012556	-0.515184	-1.150729	0.010202	-0.432082	-1.068534	0.006277	-0.328214	-0.986339	0.078473	-2.396917	-7.314296	0.000000	0.000000	16.320587	4.313342	-7.716603	8.029283	-18.880119	81.844326	23.964677	44.776832	6.797524	5.835243	6.373962	-15.670186	130.307396	10.768553	6.936618	-3.812587	-15.485033
7.292683	-0.222753	-1.853212	100.817271	0.261692	0.429190	0.896032	-2.362822	0.251283	-2.022617	2.570823	0.044869	29.908897	-1.170455	0.000000	2.160136	0.507053	1.014789	6.467259	0.112875	32.728683	11.212373	0.000000	-0.001836	-0.210144	-1.347740	-0.003410	-0.279492	-1.431974	-0.003016	-0.510944	-1.431974	-0.002098	-0.510944	-1.179273	-0.001705	-0.428526	-1.095039	-0.001049	-0.325513	-1.010805	-0.013114	-2.377192	-7.495727	0.000000	0.000000	14.763154	3.964002	-5.315007	8.213696	-18.993506	83.194661	23.972244	43.907783	6.258273	4.960763	6.569494	-15.457077	131.488801	10.531949	6.474860	-4.296228	-16.195904
